<svg width="48" height="48" viewBox="0 0 48 48" fill="none" xmlns="http://www.w3.org/2000/svg">
<title>CityscopeLogo</title>
<g clip-path="url(#clip0_1201_667)">
<path fill-rule="evenodd" clip-rule="evenodd" d="M34.8873 25.2852V34.696H25.4766V38.4917H34.8873H38.683V34.696V25.2852H34.8873Z" fill="black"/>
<path fill-rule="evenodd" clip-rule="evenodd" d="M9.29688 9.48828V13.284V22.6948H13.0926V13.284H22.5033V9.48828H13.0926H9.29688Z" fill="black"/>
<path d="M22.0284 25.5978C22.0284 27.3942 22.6667 28.718 24.1558 28.718C25.3849 28.718 26.2595 28.0325 27.3941 26.6378L27.8431 27.0632C26.7085 28.9306 24.983 30.4907 22.7612 30.4907C20.2556 30.4907 18.79 28.6707 18.79 26.1178C18.79 21.8867 22.0993 17.4902 26.2358 17.4902C28.0086 17.4902 29.1905 18.2229 29.1905 19.6412C29.1905 20.5867 28.576 21.1776 27.6541 21.3904H26.9686C27.0867 19.7356 26.8977 18.3175 25.7158 18.3175C23.7066 18.3175 22.0284 22.4305 22.0284 25.5978Z" fill="black"/>
</g>
<defs>
<clipPath id="clip0_1201_667">
<rect width="48" height="48" fill="white"/>
</clipPath>
</defs>
</svg>