<svg width="48" height="48" viewBox="0 0 48 48" fill="none" xmlns="http://www.w3.org/2000/svg">
<g clip-path="url(#clip0_3_31910)">
<rect width="48" height="48" rx="16" fill="#FFCC29"/>
<path fill-rule="evenodd" clip-rule="evenodd" d="M34.8878 25.2852V34.696H25.4771V38.4917H34.8878H38.6835V34.696V25.2852H34.8878Z" fill="black"/>
<path fill-rule="evenodd" clip-rule="evenodd" d="M9.29688 9.48828V13.284V22.6948H13.0926V13.284H22.5033V9.48828H13.0926H9.29688Z" fill="black"/>
<path d="M22.0284 25.5958C22.0284 27.3923 22.6667 28.716 24.1558 28.716C25.3849 28.716 26.2595 28.0305 27.3941 26.6359L27.8431 27.0613C26.7085 28.9286 24.983 30.4887 22.7612 30.4887C20.2556 30.4887 18.79 28.6687 18.79 26.1159C18.79 21.8847 22.0993 17.4883 26.2358 17.4883C28.0086 17.4883 29.1905 18.2209 29.1905 19.6393C29.1905 20.5847 28.576 21.1756 27.6541 21.3884H26.9686C27.0867 19.7337 26.8977 18.3155 25.7158 18.3155C23.7066 18.3155 22.0284 22.4285 22.0284 25.5958Z" fill="black"/>
</g>
<defs>
<clipPath id="clip0_3_31910">
<rect width="48" height="48" rx="16" fill="white"/>
</clipPath>
</defs>
</svg>
