<svg width="106" height="100" viewBox="0 0 106 100" fill="none" xmlns="http://www.w3.org/2000/svg">
<path d="M87.7294 40.8443L82.6862 36.7905C81.7144 35.9784 80.4842 35.5277 79.2141 35.4855L74.5361 35.3572L70.7533 29.2116C71.3586 29.1567 72.148 29.0953 73.1653 29.0366C74.7878 28.923 76.159 27.8284 76.712 26.2792L77.8457 23.0477C78.1533 22.2335 77.7087 21.3034 76.8969 21.0356C76.0944 20.7235 75.1777 21.1746 74.9138 21.9983L73.78 25.2297C73.662 25.575 73.3348 25.8289 72.9573 25.8865C67.4845 26.282 67.2009 26.5453 66.8021 26.9227L64.8452 28.6326C64.5086 28.9308 64.1721 29.229 62.0746 34.6626C61.8478 35.3088 61.7522 35.9834 61.8314 36.6957L62.3343 40.8362C62.4228 41.5042 62.9073 42.0258 63.5628 42.1672C63.7377 42.2049 63.9218 42.1982 64.0622 42.1822C64.9046 42.0858 65.5274 41.2932 65.3887 40.429L64.8857 36.2884C64.8699 36.146 64.9071 35.9686 64.9349 35.8356C65.2518 34.977 65.5409 34.2515 65.8113 33.6146L69.1233 38.0829L73.8916 43.8849C74.2543 44.3339 74.4236 44.8339 74.3466 45.4198L73.8606 51.6644C73.7966 52.6239 74.4439 53.4587 75.318 53.6472C75.4054 53.666 75.4928 53.6849 75.5365 53.6943C76.5696 53.778 77.4639 52.9976 77.5464 51.9495L78.051 45.6162C78.192 44.0708 77.684 42.5709 76.6991 41.3852L74.8418 39.1308L79.0205 39.2441C79.4761 39.2497 79.9382 39.4421 80.2944 39.7043L85.3376 43.7581C85.572 43.9476 85.8249 44.0485 86.1308 44.1145C86.7864 44.2559 87.5162 44.0425 87.9615 43.4434C88.6624 42.714 88.5106 41.4762 87.7294 40.8443Z" fill="black"/>
<path fill-rule="evenodd" clip-rule="evenodd" d="M65.6889 23.6414C64.1973 22.7768 62.5472 22.8018 61.726 23.8C60.7549 24.9804 61.3106 27.0746 62.9671 28.4775C64.6237 29.8804 66.7537 30.0608 67.7248 28.8805C68.6213 27.7906 68.2164 25.9217 66.8451 24.5372C66.8043 24.5835 66.7686 24.6286 66.7374 24.6757C66.6623 24.7891 66.5849 24.9572 66.5225 25.1131C66.4926 25.1879 66.4682 25.2543 66.4515 25.3018C66.4431 25.3255 66.4367 25.3442 66.4325 25.3568L66.4279 25.3706L66.4269 25.3737L66.4268 25.374L66.4268 25.3741L66.4268 25.3741L66.4267 25.3742L65.9819 26.7548L65.6574 25.3448L66.0467 25.2528C65.6574 25.3448 65.6573 25.3448 65.6573 25.3447L65.6573 25.3446L65.6572 25.3442L65.657 25.3434L65.6565 25.3413L65.6551 25.3347L65.6505 25.3132C65.6468 25.2951 65.6418 25.2698 65.6362 25.2383C65.6249 25.1755 65.6109 25.087 65.599 24.9811C65.5755 24.7718 65.5591 24.482 65.5949 24.1808C65.6122 24.035 65.6471 23.8435 65.6889 23.6414Z" fill="black"/>
<path d="M81.5385 68.5876L72.7244 66.6866L73.8059 61.5243C73.9053 61.0495 73.632 60.6185 73.1681 60.5184L64.296 58.605L65.3775 53.4426C65.4769 52.9679 65.2036 52.5369 64.7397 52.4368L55.9256 50.5359L57.0071 45.3735C57.1065 44.8988 56.8332 44.4678 56.3693 44.3677L48.367 42.6419C47.9031 42.5418 47.4806 42.8228 47.3811 43.2975L42.4834 66.6766C42.384 67.1513 42.6573 67.5824 43.1212 67.6825C43.1212 67.6825 55.416 76.1936 61.5135 77.5087C67.7286 78.8491 79.2553 78.8834 79.2553 78.8834C79.7192 78.9835 80.9457 75.4678 81.0451 74.9931L82.1639 69.6527C82.2633 69.178 82.0024 68.6876 81.5385 68.5876Z" fill="black"/>
<g filter="url(#filter0_d_941_1914)">
<path fill-rule="evenodd" clip-rule="evenodd" d="M43.9778 39.1922L40.736 39.3706L46.7032 26.1825L44.8618 15.083L38.4203 15.4288L34.5105 24.2893L23.0463 40.2763L24.6139 70.9121L3.5625 94.8038H55.4888L63.6294 81.2973L36.3879 75.4222L43.9778 39.1922ZM54.677 1.15234L98.1869 10.706L90.9104 43.0402L85.3967 43.3137L91.4904 16.6254L58.4216 9.3235L45.8925 62.9672L72.4316 68.6908L72.8614 77.2466L83.8623 76.6837L82.3561 83.8738L38.0578 74.3201L54.677 1.15234ZM94.3345 33.5608L101.94 33.1533L102.409 42.3733L92.3753 42.9127L94.3345 33.5608ZM94.9362 53.421L94.4677 44.292L84.0287 44.8247L84.498 54.0446L94.9362 53.421ZM76.4761 55.8249L76.9446 64.9539L92.6959 64.1143L92.2274 54.9854L76.4761 55.8249ZM73.7311 66.56L74.2004 75.7799L89.4129 74.9553L88.9436 65.7354L73.7311 66.56ZM81.185 9.98467L70.4979 7.50977L70.2027 8.91882L80.8898 11.3937L81.185 9.98467ZM58.4989 72.2121L62.1508 69.792L64.5262 73.512L60.8669 75.9204L58.4989 72.2121Z" fill="white"/>
</g>
<defs>
<filter id="filter0_d_941_1914" x="0.5625" y="0.152344" width="104.847" height="99.6515" filterUnits="userSpaceOnUse" color-interpolation-filters="sRGB">
<feFlood flood-opacity="0" result="BackgroundImageFix"/>
<feColorMatrix in="SourceAlpha" type="matrix" values="0 0 0 0 0 0 0 0 0 0 0 0 0 0 0 0 0 0 127 0" result="hardAlpha"/>
<feOffset dy="2"/>
<feGaussianBlur stdDeviation="1.5"/>
<feColorMatrix type="matrix" values="0 0 0 0 0 0 0 0 0 0 0 0 0 0 0 0 0 0 0.114653 0"/>
<feBlend mode="normal" in2="BackgroundImageFix" result="effect1_dropShadow_941_1914"/>
<feBlend mode="normal" in="SourceGraphic" in2="effect1_dropShadow_941_1914" result="shape"/>
</filter>
</defs>
</svg>
