<svg width="110" height="75" viewBox="0 0 110 75" fill="none" xmlns="http://www.w3.org/2000/svg">
<path opacity="0.4" fill-rule="evenodd" clip-rule="evenodd" d="M85.7642 13.0232C85.7642 6.20167 80.2285 0.671875 73.3965 0.671875C66.5645 0.671875 61.0274 6.20167 61.0274 13.0232C61.0274 18.5774 64.6968 23.2728 69.7472 24.8283L58.168 74.4627H85.5614L76.9941 24.8413C82.069 23.3015 85.7642 18.596 85.7642 13.0232ZM81.7447 8.67773C82.9378 8.67773 83.9092 9.63854 83.9092 10.8274C83.9092 12.0188 82.9378 12.9821 81.7447 12.9821C80.5491 12.9821 79.5803 12.0188 79.5803 10.8274C79.5803 9.63854 80.5491 8.67773 81.7447 8.67773ZM73.3963 10.8283C73.3963 9.64016 72.4235 8.6748 71.2344 8.6748C70.0351 8.6748 69.07 9.64016 69.0674 10.8283C69.0674 12.0215 70.0351 12.9843 71.2344 12.9843C72.426 12.9843 73.3963 12.0215 73.3963 10.8283Z" fill="#131415"/>
<path fill-rule="evenodd" clip-rule="evenodd" d="M56.9856 27.3886C56.9856 18.8189 50.4572 11.8721 42.3999 11.8721C34.3426 11.8721 27.8125 18.8189 27.8125 27.3886C27.8125 34.3661 32.14 40.2647 38.0962 42.2189L27.8125 74.4629H46.8667H53.4251L46.6427 42.2351C52.6277 40.3008 56.9856 34.3895 56.9856 27.3886ZM51.9251 21.7318C53.4019 21.7318 54.6043 22.9678 54.6043 24.4972C54.6043 26.0299 53.4019 27.2692 51.9251 27.2692C50.4452 27.2692 49.246 26.0299 49.246 24.4972C49.246 22.9678 50.4452 21.7318 51.9251 21.7318ZM42.1017 24.4989C42.1017 22.9704 40.8975 21.7285 39.4257 21.7285C37.9412 21.7285 36.7465 22.9704 36.7434 24.4989C36.7434 26.0339 37.9412 27.2725 39.4257 27.2725C40.9007 27.2725 42.1017 26.0339 42.1017 24.4989Z" fill="#131415"/>
<path opacity="0.78" fill-rule="evenodd" clip-rule="evenodd" d="M24.6592 32.2322C24.6592 25.4056 19.1894 19.8718 12.4387 19.8718C5.68799 19.8718 0.216797 25.4056 0.216797 32.2322C0.216797 37.7904 3.84251 42.4891 8.83284 44.0458L3.12004 74.4626H21.5945L15.9935 44.0588C21.0079 42.5178 24.6592 37.809 24.6592 32.2322ZM20.6866 27.8832C21.8654 27.8832 22.8253 28.8447 22.8253 30.0344C22.8253 31.2266 21.8654 32.1907 20.6866 32.1907C19.5052 32.1907 18.5479 31.2266 18.5479 30.0344C18.5479 28.8447 19.5052 27.8832 20.6866 27.8832ZM12.4376 30.0357C12.4376 28.8467 11.4763 27.8806 10.3014 27.8806C9.11635 27.8806 8.1627 28.8467 8.16016 30.0357C8.16016 31.2298 9.11635 32.1933 10.3014 32.1933C11.4788 32.1933 12.4376 31.2298 12.4376 30.0357Z" fill="#131415"/>
<g filter="url(#filter0_d_941_1978)">
<path fill-rule="evenodd" clip-rule="evenodd" d="M32.6484 7.51693L105.728 6.22266L106.434 47.2564L33.3544 48.5507L32.6484 7.51693ZM35.7862 10.5696L36.3852 45.3862L94.0742 44.3645L93.4752 9.54785L35.7862 10.5696ZM96.8508 26.5431L99.7383 29.3724L102.527 26.4426L99.6393 23.6133L96.8508 26.5431Z" fill="white"/>
</g>
<defs>
<filter id="filter0_d_941_1978" x="29.6484" y="5.22266" width="79.7852" height="48.328" filterUnits="userSpaceOnUse" color-interpolation-filters="sRGB">
<feFlood flood-opacity="0" result="BackgroundImageFix"/>
<feColorMatrix in="SourceAlpha" type="matrix" values="0 0 0 0 0 0 0 0 0 0 0 0 0 0 0 0 0 0 127 0" result="hardAlpha"/>
<feOffset dy="2"/>
<feGaussianBlur stdDeviation="1.5"/>
<feColorMatrix type="matrix" values="0 0 0 0 0 0 0 0 0 0 0 0 0 0 0 0 0 0 0.142249 0"/>
<feBlend mode="normal" in2="BackgroundImageFix" result="effect1_dropShadow_941_1978"/>
<feBlend mode="normal" in="SourceGraphic" in2="effect1_dropShadow_941_1978" result="shape"/>
</filter>
</defs>
</svg>
