<svg width="97" height="92" viewBox="0 0 97 92" fill="none" xmlns="http://www.w3.org/2000/svg">
<path opacity="0.4" d="M14.5813 55.185C14.5813 55.185 42.6045 49.6621 50.2366 28.3861" stroke="white" stroke-width="5.2"/>
<path fill-rule="evenodd" clip-rule="evenodd" d="M48.6123 7.83105H96.8069V50.0421V59.5066H48.6123V50.0421L48.6123 7.83105Z" fill="#D8D8D8"/>
<path fill-rule="evenodd" clip-rule="evenodd" d="M40.9246 0H89.1192V32.2595C89.1192 38.8528 88.0815 45.4049 86.0442 51.6755H37.8496C39.8869 45.4049 40.9246 38.8528 40.9246 32.2595V0Z" fill="white"/>
<path fill-rule="evenodd" clip-rule="evenodd" d="M54.1807 39.0806C54.2673 38.996 54.3492 38.9066 54.4262 38.8129C54.516 38.7051 54.599 38.5905 54.6796 38.4752C54.8064 38.2937 54.9253 38.1067 55.0443 37.9198L55.0444 37.9197C55.0813 37.8617 55.1183 37.8036 55.1555 37.7457L55.2325 37.6253L55.2325 37.6252C55.367 37.4143 55.5013 37.2039 55.6507 37.003C55.7339 36.8914 55.8221 36.7839 55.9153 36.6805L55.9609 36.6321C55.9562 36.6373 55.9737 36.6199 55.989 36.6047L56.0088 36.585L56.1847 36.4325L56.3436 36.315L56.3951 36.2826L56.451 36.2524L56.6302 36.1713L56.724 36.1388H56.7261L56.7783 36.1271L56.9235 36.1098H56.9924L57.0937 36.1166C57.2348 36.1287 57.3752 36.1533 57.5147 36.1778L57.5467 36.1834C57.8629 36.25 58.186 36.2774 58.5088 36.265C58.8535 36.232 59.179 36.089 59.4385 35.8565C60.0792 35.3233 60.0476 34.2967 60.0238 33.5251L60.0214 33.4458L59.996 32.7887L59.9861 32.4806L59.9837 32.3495V32.2581C59.9841 32.0763 59.9963 31.8947 60.0202 31.7146L60.0403 31.6005L60.0469 31.5715L60.1024 31.4271L60.1247 31.3971L60.13 31.3933L60.1367 31.3905L60.1746 31.386L60.2367 31.3927L60.3128 31.407L60.3222 31.4096C60.4656 31.4578 60.6043 31.5194 60.7364 31.5937C60.8643 31.6472 61.0094 31.6373 61.1291 31.5669C61.2487 31.4965 61.3293 31.3737 61.3472 31.2345C61.3559 30.7058 61.2664 30.1802 61.0833 29.6851C60.9201 29.1871 60.7084 28.705 60.4978 28.2254L60.4437 28.1021L60.4092 28.023C60.1859 27.5115 59.9626 26.9998 59.7797 26.4716L59.6933 26.2059C60.0122 26.7738 60.3575 27.3273 60.7036 27.8718C60.8164 28.0494 60.9306 28.226 61.0447 28.4027L61.0447 28.4028L61.0448 28.4028L61.0448 28.4029L61.0448 28.4029L61.0449 28.4029C61.2574 28.7319 61.4699 29.0608 61.6736 29.3954L61.7451 29.513C62.0696 30.0469 62.3938 30.5803 62.7547 31.0899C63.2891 31.9653 64.0598 32.6667 64.9753 33.1109C65.124 33.1705 65.2927 33.1461 65.419 33.0467C65.5454 32.9473 65.6107 32.7877 65.5909 32.6267C65.4905 31.9335 65.2691 31.2641 64.937 30.6498C64.5878 29.9778 64.1955 29.3299 63.7626 28.7101C63.6104 28.4865 63.455 28.265 63.2995 28.0435L63.2995 28.0435L63.2995 28.0435L63.2995 28.0434L63.2994 28.0434L63.2994 28.0434C63.0779 27.7277 62.8563 27.4119 62.6438 27.0897C62.557 26.9581 62.4709 26.826 62.3849 26.6938C62.069 26.2088 61.7532 25.7238 61.3997 25.266C60.9124 24.5946 60.2857 24.0401 59.5639 23.6417L59.5343 23.6281L59.4531 23.3788L59.4184 23.2617L59.4129 23.2431L59.4082 23.2247L59.3501 22.9933C59.3121 22.8297 59.2818 22.6638 59.2577 22.4977C59.2362 22.3488 59.223 22.1989 59.2154 22.0487L59.2138 21.9929L59.2131 21.9175L59.2262 21.6644C59.2356 21.5509 59.2517 21.4379 59.2745 21.3263L59.2865 21.2713L59.3178 21.16L59.3999 20.947L59.4408 20.864L59.4552 20.8402L59.5656 20.6961L59.6392 20.6345L59.6854 20.6013L59.6953 20.5958L59.8342 20.5377L59.8512 20.5338L59.9381 20.5181L60.0279 20.5083L60.0857 20.506C60.2064 20.5112 60.3265 20.5264 60.4448 20.5515L60.5487 20.5752L60.5573 20.5782L60.7978 20.6574C61.1216 20.7803 61.4345 20.9306 61.7332 21.107L61.8346 21.1678L61.8835 21.1982L62.0166 21.5257L62.0167 21.5258C62.2634 22.1327 62.51 22.7396 62.7637 23.3432C63.955 26.4448 65.581 29.3559 67.5917 31.9863C67.7136 32.1355 67.8304 32.2883 67.9472 32.441C68.1329 32.6839 68.3185 32.9266 68.5243 33.1544C68.8282 33.5422 69.218 33.8517 69.6621 34.0576C69.8967 34.1498 70.1562 34.1531 70.393 34.0669C70.6347 33.9563 70.8289 33.7609 70.9398 33.5165L70.9925 33.41L71.2586 33.7802C72.3679 35.4512 73.8413 36.8409 75.5647 37.8416C75.6757 37.8886 75.8005 37.889 75.9117 37.8425C76.0229 37.7961 76.1114 37.7067 76.1575 37.594C76.3812 36.7829 76.3433 35.9205 76.0493 35.1329C75.8448 34.456 75.5776 33.7908 75.3135 33.1333L75.2166 32.8917C74.7289 31.6728 74.1782 30.4803 73.5831 29.3111C73.877 29.5869 74.1782 29.8513 74.4985 30.0991C74.9277 30.4863 75.4837 30.6975 76.0581 30.6913C76.6022 30.6247 76.8932 30.0733 77.0001 29.5865C77.0955 29.022 77.0858 28.4444 76.9714 27.8836C76.9115 27.5001 76.8249 27.1221 76.7383 26.7441L76.7383 26.744C76.7139 26.6378 76.6896 26.5316 76.6659 26.4253C76.5052 25.7045 76.3055 24.993 76.0768 24.2918C75.6049 22.8574 75.0035 21.4703 74.2802 20.1481C72.8347 17.4331 70.8814 15.0302 68.5297 13.0736C67.5756 12.2806 66.5342 11.6023 65.4264 11.0524C64.4847 10.4519 63.3066 10.3785 62.2995 10.8577C61.8317 11.203 61.5086 11.7138 61.3939 12.2891C61.2752 12.8047 61.2469 13.3376 61.3105 13.8632C61.1561 13.8929 61.0266 13.999 60.9654 14.1458C60.4344 15.7093 60.4652 17.4129 61.0521 18.9557C61.1481 19.269 61.2551 19.579 61.368 19.886C60.9885 19.7069 60.5783 19.6043 60.1601 19.584C59.8091 19.5694 59.4615 19.6589 59.1599 19.8416C58.8842 20.028 58.6695 20.2935 58.543 20.6041C58.3554 21.069 58.2715 21.5701 58.2971 22.0717C58.3243 22.7523 58.4607 23.4238 58.7011 24.0598L58.7731 24.2601C58.5349 25.1343 58.6078 26.0658 58.9791 26.8908C59.1592 27.4052 59.3788 27.9034 59.5984 28.4017L59.5984 28.4017C59.8445 28.9601 60.0906 29.5184 60.281 30.0995L60.3274 30.2477L60.3443 30.3057L60.3535 30.3382L60.3952 30.5126C60.1975 30.477 59.9942 30.4934 59.8046 30.5604C59.4533 30.733 59.2141 31.0766 59.1711 31.4701C59.1057 31.8708 59.0887 32.2781 59.1206 32.683L59.1481 33.3334L59.1598 33.6498L59.1639 33.8065L59.1654 33.8839L59.166 33.9059C59.1677 34.1059 59.1588 34.3058 59.1393 34.5048L59.0993 34.7693L59.08 34.8537L59.0536 34.9328L59.0108 35.0387L58.9833 35.0907L58.9477 35.1419L58.9206 35.1753L58.7856 35.2899L58.7227 35.3313L58.6556 35.3624L58.5935 35.3861C58.5899 35.3867 58.5763 35.3906 58.562 35.3945L58.562 35.3946C58.5473 35.3987 58.532 35.4029 58.5267 35.404L58.3275 35.4279H58.2556L58.1493 35.4211L57.9352 35.3968C57.8338 35.3829 57.7329 35.3658 57.6321 35.3488L57.6316 35.3487C57.5789 35.3398 57.5261 35.3308 57.4733 35.3224C57.1749 35.2595 56.8669 35.2601 56.5688 35.3242C55.9656 35.5121 55.4428 35.9012 55.0851 36.4286C54.9505 36.6093 54.8293 36.8005 54.7127 36.9936L54.6438 37.1126C54.6715 37.0597 54.6501 37.0978 54.6342 37.1261L54.6214 37.1487L54.5002 37.3607L54.3292 37.6713L54.3191 37.6898C54.2108 37.8874 54.1632 37.9744 54.0326 38.181L53.8526 38.4454L53.7349 38.6179C53.7634 38.5672 53.7025 38.634 53.6745 38.6647L53.663 38.6773C53.5536 38.8222 53.5804 39.0297 53.723 39.1411C53.867 39.2483 54.0686 39.2216 54.1807 39.0806ZM70.2812 32.6673L70.2572 32.783L70.2484 32.82L70.2428 32.8394C70.2164 32.932 70.1824 33.0222 70.1411 33.109L70.0807 33.2007L70.0764 33.2057L70.0599 33.2189H70.056L70.0382 33.2164L70.0169 33.2132L70.0102 33.2113L69.8973 33.1621L69.8743 33.1502L69.864 33.1437C69.7738 33.0846 69.6878 33.0191 69.6068 32.9477L69.4859 32.8389L69.4255 32.7803L69.4225 32.7769C69.3335 32.686 69.249 32.5911 69.1658 32.4953C68.9979 32.302 68.8395 32.0999 68.6841 31.8956C68.59 31.7721 68.4954 31.6488 68.4007 31.5255L68.4007 31.5255L68.4007 31.5254L68.4006 31.5254L68.4006 31.5253L68.4005 31.5253C68.0854 31.1147 67.77 30.7038 67.4703 30.2818C67.2345 29.9493 67.0081 29.609 66.7887 29.2648C66.6829 29.0995 66.5792 28.9327 66.4774 28.7645L66.3255 28.5108L66.2505 28.3841L66.2113 28.3166L66.1873 28.2753C65.3754 26.8382 64.6452 25.3551 64.0005 23.8332C63.7695 23.2986 63.5441 22.7618 63.3241 22.2227C63.8685 22.6547 64.3919 23.115 64.9014 23.5878C65.0987 23.7705 65.2932 23.9557 65.4851 24.1437L65.8524 24.8634C66.6645 26.4346 67.5299 27.9764 68.4485 29.4887C69.0505 30.4838 69.6687 31.472 70.3193 32.4374L70.2812 32.6673ZM69.948 30.0723C69.8123 29.7479 69.6578 29.432 69.4852 29.1262L69.4264 29.0228L69.3718 28.931L69.2387 28.7136C69.1484 28.5692 69.056 28.4267 68.9614 28.2861C68.6524 27.8269 68.3234 27.3844 67.9923 26.9427C68.5576 27.9472 69.1467 28.9375 69.7597 29.9137L70.0828 30.4271C70.0412 30.3075 69.9965 30.189 69.948 30.0723ZM74.4732 33.4973L74.5437 33.6757C74.7754 34.261 75.0086 34.8504 75.1982 35.4504L75.2262 35.5417L75.2532 35.6325L75.3145 35.884C75.3515 36.0495 75.3788 36.2171 75.3964 36.3859L75.4113 36.6115V36.6263L75.4101 36.6669L75.4084 36.7041C75.2668 36.6148 75.1281 36.5202 74.9919 36.4226C74.6822 36.1994 74.3856 35.9579 74.1037 35.6995C73.8364 35.4579 73.5822 35.2018 73.3422 34.9322C73.0819 34.6457 72.8334 34.3473 72.5925 34.0439C72.1157 33.4436 71.6661 32.8207 71.2334 32.1862C71.2434 31.9576 71.2391 31.7285 71.2203 31.5004C71.0107 30.0601 70.4327 28.7008 69.5438 27.5579C69.0358 26.7956 68.4832 26.0649 67.8888 25.3699C67.3521 24.7593 66.7929 24.1671 66.2112 23.5934C65.7409 22.6566 65.2868 21.7092 64.8489 20.7509C64.6344 20.282 64.4062 19.8198 64.178 19.3576L64.178 19.3575L64.1779 19.3575L64.1779 19.3574L64.1779 19.3574L64.1779 19.3574L64.1779 19.3574C63.9353 18.8661 63.6928 18.3748 63.4668 17.8756C63.2044 17.2951 62.9581 16.7068 62.7421 16.1072C62.635 15.8115 62.5374 15.5122 62.4495 15.2093L62.4463 15.1992L62.4956 15.2317C62.6392 15.327 62.7778 15.4299 62.9108 15.5399C63.0372 15.6432 63.1578 15.7523 63.2756 15.8644L63.364 15.9505L63.3861 15.9721L63.3955 15.9823L63.5953 16.1932C63.8281 16.4461 64.0477 16.7106 64.2631 16.9784C64.4444 17.2034 64.6262 17.4279 64.808 17.6524L64.8085 17.653C65.5935 18.6224 66.3784 19.5915 67.1195 20.5964C68.1475 21.9894 69.1076 23.4331 70.02 24.9065C70.9353 26.384 71.7702 27.808 72.5745 29.3551C73.2781 30.7013 73.9119 32.0838 74.4733 33.4971L74.4732 33.4973ZM62.1306 13.323L62.1319 13.3648L62.1418 13.5596C62.1534 13.7159 62.1708 13.8719 62.1929 14.0271C63.2044 14.4747 64.0832 15.1824 64.7426 16.0802C64.9301 16.3056 65.1112 16.5365 65.2922 16.7673L65.2922 16.7673L65.2923 16.7673C65.4917 17.0216 65.6911 17.2758 65.899 17.5228C66.4127 18.1322 66.9067 18.7591 67.3881 19.3954C68.432 20.7739 69.4096 22.2031 70.3338 23.6673C71.2717 25.1522 72.1735 26.664 73.0066 28.2119L73.2817 28.7291C73.3585 28.6368 73.4933 28.6221 73.5876 28.6957C73.8623 28.9585 74.1385 29.2205 74.4334 29.4598C74.7625 29.7521 75.1398 29.9835 75.5479 30.1433C75.6583 30.1823 75.774 30.2037 75.8909 30.2068C75.9731 30.2071 76.054 30.186 76.1259 30.1455C76.1998 30.0986 76.2633 30.0367 76.3124 29.9636C76.3667 29.8853 76.4088 29.799 76.4375 29.7078C76.5613 29.2026 76.5697 28.6755 76.462 28.1665C76.388 27.6836 76.2718 27.2099 76.1537 26.7365C75.9822 26.0502 75.8025 25.3713 75.5762 24.7012C74.6034 21.8255 73.1241 19.153 71.2104 16.8134C70.2746 15.6609 69.2199 14.6134 68.0643 13.6887C67.4965 13.2364 66.9015 12.8206 66.2825 12.4437L65.9802 12.2599L65.9702 12.2539L65.9001 12.2133L65.7482 12.1272C65.5235 12.0025 65.2943 11.8836 65.0598 11.7771C64.8185 11.6654 64.5704 11.5694 64.317 11.4898L64.1978 11.4544L64.1818 11.4503L64.0024 11.4097C63.8852 11.3858 63.7667 11.3688 63.6475 11.3587L63.4896 11.3506L63.3576 11.3579L63.1931 11.38C63.1547 11.3912 63.1157 11.4001 63.0762 11.4066L62.9334 11.4612C62.9239 11.4655 62.9016 11.4775 62.8793 11.4895C62.8471 11.5068 62.8149 11.5242 62.8206 11.519L62.8312 11.5114C62.8253 11.5154 62.8219 11.5178 62.8206 11.519L62.7192 11.5911C62.7106 11.5979 62.6898 11.6169 62.6693 11.6355C62.6375 11.6645 62.6066 11.6927 62.6233 11.6733C62.548 11.7555 62.4805 11.8448 62.4218 11.94L62.3898 12.0001L62.351 12.0825L62.2884 12.2375L62.2271 12.4257L62.226 12.4301L62.208 12.5093C62.1836 12.625 62.1654 12.7419 62.1534 12.8595C62.139 12.9921 62.1312 13.1253 62.13 13.2587L62.1306 13.323ZM61.8396 18.3042L61.8298 18.2685L61.8218 18.2403L61.7853 18.1018L61.718 17.8246C61.672 17.6253 61.6331 17.4238 61.6004 17.2213C61.5703 17.0368 61.5482 16.8504 61.532 16.6639L61.5146 16.3857L61.5101 16.247C61.509 16.1891 61.5092 16.1853 61.5101 16.2367L61.5111 16.1444C61.5154 15.8753 61.541 15.607 61.5879 15.3422C61.7991 16.0864 62.0581 16.8157 62.3635 17.5255C62.7205 18.3827 63.1266 19.2166 63.5328 20.0506L63.5328 20.0507C63.6285 20.2472 63.7242 20.4437 63.8193 20.6405C63.9861 20.9865 64.1455 21.3357 64.3047 21.6849L64.3053 21.686C64.3471 21.7778 64.389 21.8695 64.431 21.9612L64.3382 21.8821C63.8083 21.4288 63.2523 21.008 62.6729 20.6219C62.514 20.2277 62.3579 19.8321 62.2114 19.4331C62.0752 19.061 61.9496 18.6851 61.8397 18.3044L61.8396 18.3042ZM61.6869 27.2593C61.3612 26.758 61.0352 26.256 60.6655 25.787C60.5475 25.6379 60.4269 25.4914 60.299 25.351L60.276 25.326C60.2756 25.3253 60.2751 25.3245 60.2747 25.3237H60.2738L60.276 25.326C60.3618 25.4918 60.4502 25.6561 60.5412 25.8191L60.6676 26.0441L60.7183 26.1316L60.7583 26.2009C61.1481 26.8633 61.5597 27.5128 61.9712 28.1623C62.2392 28.5852 62.5071 29.0081 62.7691 29.4346C63.1274 30.0405 63.5282 30.6194 63.9684 31.1669C64.0836 31.3052 64.2016 31.4405 64.3269 31.5694L64.3389 31.5811L64.3591 31.6008L64.4142 31.6536C64.3309 31.446 64.2381 31.2418 64.1377 31.0424C63.9571 30.6846 63.8265 30.4565 63.6317 30.1429C63.4401 29.8332 63.2395 29.5294 63.0341 29.2293C62.8938 29.0247 62.7513 28.8218 62.6088 28.6188C62.3741 28.2845 62.1394 27.9502 61.9148 27.6089C61.8385 27.4927 61.7627 27.376 61.6869 27.2593Z" fill="black"/>
<g filter="url(#filter0_d_941_1941)">
<path fill-rule="evenodd" clip-rule="evenodd" d="M30.0601 43.0138C30.0601 35.2519 24.0045 28.96 16.5308 28.96C9.05715 28.96 3 35.2519 3 43.0138C3 49.3335 7.01402 54.676 12.5388 56.446L7.59405 87H26.6327L20.4663 56.4607C26.0178 54.7087 30.0601 49.3547 30.0601 43.0138ZM25.2598 38.0772C26.6157 38.0772 27.7198 39.1901 27.7198 40.5673C27.7198 41.9473 26.6157 43.0633 25.2598 43.0633C23.9009 43.0633 22.7998 41.9473 22.7998 40.5673C22.7998 39.1901 23.9009 38.0772 25.2598 38.0772ZM16.2345 40.5687C16.2345 39.1925 15.1288 38.0742 13.7774 38.0742C12.4143 38.0742 11.3174 39.1925 11.3145 40.5687C11.3145 41.951 12.4143 43.0662 13.7774 43.0662C15.1317 43.0662 16.2345 41.951 16.2345 40.5687Z" fill="white"/>
</g>
<path d="M16.6745 56.8013C16.6745 56.8013 40.0566 73.4179 60.4423 64.2088" stroke="white" stroke-width="5.2"/>
<defs>
<filter id="filter0_d_941_1941" x="0" y="27.96" width="33.0601" height="64.04" filterUnits="userSpaceOnUse" color-interpolation-filters="sRGB">
<feFlood flood-opacity="0" result="BackgroundImageFix"/>
<feColorMatrix in="SourceAlpha" type="matrix" values="0 0 0 0 0 0 0 0 0 0 0 0 0 0 0 0 0 0 127 0" result="hardAlpha"/>
<feOffset dy="2"/>
<feGaussianBlur stdDeviation="1.5"/>
<feColorMatrix type="matrix" values="0 0 0 0 0 0 0 0 0 0 0 0 0 0 0 0 0 0 0.142249 0"/>
<feBlend mode="normal" in2="BackgroundImageFix" result="effect1_dropShadow_941_1941"/>
<feBlend mode="normal" in="SourceGraphic" in2="effect1_dropShadow_941_1941" result="shape"/>
</filter>
</defs>
</svg>
